<svg xmlns="http://www.w3.org/2000/svg" viewBox="0 0 1365 766.36"><defs><style>.cls-1{fill:#e5e5e5;}.cls-2{fill:#fda67e;}.cls-3{fill:#d0aa48;}.cls-4{fill:#cc912a;}.cls-5{fill:#8c7d74;}.cls-6{fill:#fcca3d;}.cls-7{fill:#4f3729;}.cls-8{fill:#fd5001;}.cls-9{fill:#febc00;}.cls-10{fill:#b88710;}.cls-11{fill:#7a581f;}</style></defs><title>richards-woosh</title><g id="bg"><path class="cls-1" d="M1359,766H-1V3c36.74-.84,92.72,2.41,153,27C283.81,83.78,322.05,193,456,337c0,0,91.38,98.21,214,184,91.25,63.84,299.93,175.34,694,124Q1361.5,705.5,1359,766Z" transform="translate(1 0.36)"/></g><g id="color"><path class="cls-2" d="M204.39-.36q0,.33.06.66Q156,.35,107.58.41c-1.4,0-3-.61-4.19.7l-.42,0-.19-1.45Z" transform="translate(1 0.36)"/><path class="cls-3" d="M2.53.35l.12-.71H58.28c0,.22,0,.45,0,.68Z" transform="translate(1 0.36)"/><path class="cls-4" d="M58.29.31c0-.22,0-.45,0-.67h44.5c.06.48.13,1,.19,1.45-2.42,1.48-4.29-.93-6.69-.87C83.62.53,71,.33,58.29.31Z" transform="translate(1 0.36)"/><path class="cls-4" d="M1362.91,644.91V682a4.93,4.93,0,0,1-.66-.07q-.06-18.52-.11-37.06l0-.27Z" transform="translate(1 0.36)"/><path class="cls-5" d="M1362.91,644.91l-.74-.32q0-11,0-22l.72,0Z" transform="translate(1 0.36)"/><path class="cls-6" d="M1362.25,681.92a4.93,4.93,0,0,0,.66.07V703.5l-.35.12-.36-.06Z" transform="translate(1 0.36)"/><path class="cls-7" d="M1362.19,622.62q0,11,0,22l0,.27a153.15,153.15,0,0,0-18.59,2.27c-11.75,1.86-23.68,1.8-35.51,3.35-13.34,1.76-26.9,1.88-40.38,2.55-5.78.29-11.58.18-17.37.26-2.09.24-4.53-1.46-6.19,1.12-12.71.26-25.41.64-38.12.75q-35.74.33-71.48-.72c-1.83-2.71-4.54-.82-6.8-1.29l-11.07,0c-6.73-.56-13.48.07-20.25-.68-11.83-1.29-23.77-1.16-35.62-2.85-12.5-1.79-25.17-2-37.75-3.67-16-2.19-32-3.72-47.88-6.79-8-1.55-16.23-1.89-24.2-3.91-4.15-1.05-8.64-.86-12.7-2.12-6.19-1.93-12.66-2.34-18.86-4.31-5.92-1.88-12.24-2.31-18.33-3.89-8.47-2.21-17-4.35-25.44-6.57-9.1-2.39-18.15-4.84-27.17-7.54-7-2.09-13.91-4.49-20.88-6.62-11.92-3.63-23.46-8.26-35.18-12.39-6.07-2.15-12.07-4.54-18-7.12-9.89-4.33-19.7-8.85-29.51-13.38-5.62-2.6-11.27-5.18-16.71-8.12-7.25-3.91-14.32-8.14-21.45-12.27-6.94-4-14.05-7.79-20.74-12.2-11.22-7.41-22.21-15.17-33.2-22.93-6-4.26-11.9-8.78-17.76-13.29s-11.83-9.29-17.71-14c-6.67-5.3-13.43-10.49-19.91-16-7.22-6.13-14.16-12.59-21.24-18.89-7.36-6.54-14.86-12.94-22.09-19.63-8.29-7.67-16.38-15.56-24.49-23.43q-11.28-10.92-22.4-22C501,382.36,495,376,488.93,369.69c-8.47-8.74-17-17.4-25.4-26.23-7-7.4-13.85-15-20.78-22.5-7.19-7.77-14.43-15.5-21.58-23.3-6.74-7.36-13.39-14.81-20.11-22.19-6.89-7.56-13.86-15-20.71-22.63-6.68-7.42-13.19-15-19.87-22.4-8.14-9-16.37-18-24.59-27-8-8.8-16.22-17.49-24.12-26.42-3.25-3.67-7.27-6.73-9.53-11.24,1.28-.08,2.05.85,2.83,1.57q8.25,7.77,16.44,15.61,9.92,9.48,19.81,19c6.8,6.48,13.63,12.92,20.41,19.42,6.41,6.15,12.75,12.39,19.17,18.54,8.11,7.76,16.28,15.47,24.4,23.21,6.54,6.22,13,12.52,19.59,18.69,6.93,6.51,14,12.87,20.94,19.36,8,7.49,15.92,15.09,23.95,22.56,8.47,7.89,16.88,15.85,25.63,23.42,3.06,2.65,5.39,6.29,9.46,7.72l-.06,0c1.09,1.73,1.89,3.79,4.45,3.81l0,0c-.13.64.32.9.76,1.17,5,4.59,10.09,9.21,15.18,13.77s10.07,9,15.15,13.4c8.69,7.59,17.33,15.24,26.16,22.69,6.45,5.44,13.29,10.42,19.7,15.91s12.81,10.41,19.12,15.72c4.83,4.07,10.14,7.7,15.22,11.55,7.07,5.35,14,10.84,21.18,16.11,5.42,4,11.08,7.69,16.52,11.66C666,486.26,674,491.72,682.09,497c6.61,4.33,13.35,8.62,20.17,12.7,6.3,3.77,12.57,7.71,18.82,11.57,4.72,2.91,9.74,5.57,14.75,8.13,8.32,4.24,16.5,8.78,24.85,13,2.78,1.39,5.66,2.6,8.49,3.9q15.72,7.25,31.66,14c6.45,2.74,13,5.17,19.62,7.57,5,1.84,9.87,4.37,15,5.89,6,1.81,11.9,4.07,17.89,6,8.15,2.58,16.55,4.45,24.34,8.09,1.52.71,3.12.43,4.59,1,10.41,3.69,21.21,6.11,31.83,9,8.89,2.43,18,4.52,27,6.45,6.75,1.43,13.5,3.18,20.26,4.58,10.2,2.11,20.51,3.87,30.73,5.91,10,2,20.07,3.71,30.08,5.25,9.69,1.5,19.4,3.37,29.26,4.26q21.93,2,43.82,4.61c8.36,1,16.8,1.11,25.12,2.65,3.58.66,7.38.15,11.08.17.35,1.15,1.21,1.37,2.3,1.37,3.19,0,6.39,0,9.58.06,20.68,1,41.37,1.3,62.07,1.51,20.87.21,41.73-.26,62.59-.8,6.45-.16,12.86-.64,19.26-1.39,2.37,1,4.68,1.51,6.71-.71,16.4-.47,32.58-3.11,48.75-5.48C1349.21,625.23,1355.68,623.7,1362.19,622.62Z" transform="translate(1 0.36)"/><path class="cls-8" d="M504.87,354.85c-4.07-1.43-6.4-5.07-9.46-7.72-8.75-7.57-17.16-15.53-25.63-23.42-8-7.47-15.94-15.07-23.95-22.56-6.95-6.49-14-12.85-20.94-19.36-6.58-6.17-13.05-12.47-19.59-18.69-8.12-7.74-16.29-15.45-24.4-23.21-6.42-6.15-12.76-12.39-19.17-18.54-6.78-6.5-13.61-12.94-20.41-19.42q-9.92-9.47-19.81-19-8.2-7.83-16.44-15.61c-.78-.72-1.55-1.65-2.83-1.57l0,0c.09-1.09-.17-1.84-1.51-1.52l0,0c.12-.64-.23-.81-.78-.78l0,0c.05-.57-.28-.77-.78-.79l0,0c.14-1.64-.8-2.21-2.25-2.28l.05.05c0-.56-.34-.68-.78-.74-1.6-1.49-3.27-2.91-4.78-4.49q-11.47-12-22.89-24.17c-6.85-7.28-13.78-14.48-21-21.4-6.52-6.24-12.73-12.8-19.26-19C221.25,84,213.94,77.31,206.59,70.7c-8.53-7.65-17.11-15.24-26.17-22.28-8.28-6.42-16.63-12.72-25.2-18.77a207.86,207.86,0,0,0-24.45-15.38c-8.51-4.38-16.7-9.72-26.29-11.79-.69-.15-.89-.78-1.09-1.37,1.21-1.31,2.79-.7,4.19-.7Q156,.31,204.45.3c4.91,5.51,9.83,11,14.7,16.52,5.54,6.28,11.09,12.54,16.53,18.89Q246.95,48.84,258,62.09c6.46,7.73,12.78,15.57,19.19,23.34,7,8.52,14.13,17,21.11,25.53,8.21,10.05,16.55,20,24.49,30.29,5.86,7.59,12.21,14.8,18.27,22.24,11,13.56,21.88,27.25,33,40.73,10.19,12.35,20.65,24.49,31,36.76,9.2,11,18.25,22,27.56,32.87,8.45,9.84,17.12,19.51,25.78,29.16q16.74,18.66,33.65,37.18c3.68,4,7.6,7.84,11.44,11.73C504.3,352.75,505.38,353.41,504.87,354.85Z" transform="translate(1 0.36)"/><path class="cls-5" d="M1143.35,633.05c-3.19,0-6.39-.07-9.58-.06-1.09,0-2-.22-2.3-1.37C1135.47,631.8,1139.6,630.85,1143.35,633.05Z" transform="translate(1 0.36)"/><path class="cls-5" d="M1294,631.66c-2,2.22-4.34,1.71-6.71.71C1289.4,631.1,1291.71,631.6,1294,631.66Z" transform="translate(1 0.36)"/><path class="cls-8" d="M509.26,358.62c-2.56,0-3.36-2.08-4.45-3.81C507.48,354.69,508.18,356.87,509.26,358.62Z" transform="translate(1 0.36)"/><path class="cls-8" d="M510,359.75c-.44-.27-.89-.53-.76-1.17C509.92,358.68,510.16,359.07,510,359.75Z" transform="translate(1 0.36)"/><path class="cls-9" d="M103.39,1.11c.2.59.4,1.22,1.09,1.37,9.59,2.07,17.78,7.41,26.29,11.79a207.86,207.86,0,0,1,24.45,15.38c8.57,6.05,16.92,12.35,25.2,18.77,9.06,7,17.64,14.63,26.17,22.28,7.35,6.61,14.66,13.27,21.82,20.09,6.53,6.23,12.74,12.79,19.26,19,7.22,6.92,14.15,14.12,21,21.4q11.4,12.12,22.89,24.17c1.51,1.58,3.18,3,4.78,4.49l.78.74-.05-.05c.8.71.65,2.37,2.25,2.28l0,0c-.07.59.27.78.78.79l0,0c0,.53.29.75.78.78l0,0c0,1,.08,1.94,1.51,1.52l0,0c2.26,4.51,6.28,7.57,9.53,11.24,7.9,8.93,16.08,17.62,24.12,26.42,8.22,9,16.45,18,24.59,27,6.68,7.42,13.19,15,19.87,22.4,6.85,7.59,13.82,15.07,20.71,22.63,6.72,7.38,13.37,14.83,20.11,22.19,7.15,7.8,14.39,15.53,21.58,23.3,6.93,7.5,13.75,15.1,20.78,22.5,8.38,8.83,16.93,17.49,25.4,26.23C495,376,501,382.36,507.19,388.56q11.09,11.12,22.4,22c8.11,7.87,16.2,15.76,24.49,23.43,7.23,6.69,14.73,13.09,22.09,19.63,7.08,6.3,14,12.76,21.24,18.89,6.48,5.51,13.24,10.7,19.91,16,5.88,4.68,11.75,9.38,17.71,14s11.73,9,17.76,13.29c11,7.76,22,15.52,33.2,22.93,6.69,4.41,13.8,8.18,20.74,12.2,7.13,4.13,14.2,8.36,21.45,12.27,5.44,2.94,11.09,5.52,16.71,8.12,9.81,4.53,19.62,9.05,29.51,13.38,5.9,2.58,11.9,5,18,7.12,11.72,4.13,23.26,8.76,35.18,12.39,7,2.13,13.88,4.53,20.88,6.62,9,2.7,18.07,5.15,27.17,7.54,8.47,2.22,17,4.36,25.44,6.57,6.09,1.58,12.41,2,18.33,3.89,6.2,2,12.67,2.38,18.86,4.31,4.06,1.26,8.55,1.07,12.7,2.12,8,2,16.19,2.36,24.2,3.91,15.86,3.07,31.91,4.6,47.88,6.79,12.58,1.72,25.25,1.88,37.75,3.67,11.85,1.69,23.79,1.56,35.62,2.85,6.77.75,13.52.12,20.25.68.32,1.45,1.44,1.38,2.55,1.37l8.68,0,6.64,0q35.73,1.06,71.48.72c12.71-.11,25.41-.49,38.12-.75,2.08-.26,4.52,1.44,6.19-1.12,5.79-.08,11.59,0,17.37-.26,13.48-.67,27-.79,40.38-2.55,11.83-1.55,23.76-1.49,35.51-3.35a153.15,153.15,0,0,1,18.59-2.27q.06,18.52.11,37.06,0,10.82,0,21.64c-10.94,2.28-22.09,3.31-33.06,5.24-12.72,2.24-25.65,2.31-38.34,4.76-7.1,1.38-14.54.86-21.75,1.81-20.2,2.64-40.58,2.31-60.81,4-30.89,2.58-61.8,1.93-92.71,2-17.17,0-34.39.08-51.48-1.23-18.39-1.4-36.85-1.62-55.2-3.4-20.17-2-40.34-4-60.43-6.71q-24.63-3.3-49.15-7.46c-11.77-2-23.5-4.4-35.23-6.69-9.93-1.94-19.81-4.3-29.66-6.65s-19.79-4.72-29.6-7.35c-7.86-2.1-15.67-4.41-23.5-6.64-8.08-2.3-16.19-4.64-24.15-7.33-10.13-3.42-20.33-6.67-30.37-10.33q-13.83-5.06-27.58-10.38c-11.28-4.38-22.42-9.14-33.48-14.06-9.51-4.22-18.93-8.67-28.19-13.41-11-5.62-21.94-11.33-32.55-17.6-10.08-6-20.07-12.06-29.85-18.54-8-5.29-16.07-10.43-23.87-16q-12.84-9.12-25.34-18.77c-6.8-5.27-13.69-10.44-20.41-15.83q-11.21-9-22.14-18.33c-6.17-5.25-12.23-10.64-18.28-16-7-6.22-13.95-12.46-20.83-18.8-5.69-5.25-11.28-10.63-16.85-16-7.93-7.67-16-15.23-23.62-23.21-7.23-7.55-14.76-14.8-22.08-22.27s-14.42-14.81-21.54-22.3c-6.19-6.5-12.27-13.11-18.38-19.68-7.87-8.45-15.76-16.88-23.57-25.38q-11-11.94-21.81-24c-8.92-9.94-17.71-20-26.65-29.92-8.69-9.67-17.51-19.22-26.24-28.86-12.3-13.59-24.48-27.3-36.89-40.8-10.27-11.17-20.93-22-31.19-33.17-13.54-14.77-27.62-29-41.77-43.16-10.29-10.29-20.88-20.32-31.54-30.25S80.75,101.4,70,91.78c-7.76-7-16.16-13.22-24.34-19.71S29.62,59.3,21.41,53.14C16,49.08,10.27,45.39,4.64,41.6c-1-.7-2-1.15-2-2.72,0-12.84,0-25.69-.08-38.53l55.76,0c12.66,0,25.33.21,38-.1,2.4-.06,4.27,2.35,6.69.87Z" transform="translate(1 0.36)"/><path class="cls-10" d="M1127.86,654.46l-8.68,0c-1.11,0-2.23.08-2.55-1.37l11.07,0C1127.76,653.59,1127.81,654,1127.86,654.46Z" transform="translate(1 0.36)"/><path class="cls-11" d="M1127.86,654.46c0-.43-.1-.87-.16-1.31,2.26.47,5-1.42,6.8,1.29Z" transform="translate(1 0.36)"/><path class="cls-10" d="M1250.29,653.29c-1.67,2.56-4.11.86-6.19,1.12C1245.76,651.83,1248.2,653.53,1250.29,653.29Z" transform="translate(1 0.36)"/><path class="cls-7" d="M299.32,162.85c-1.6.09-1.45-1.57-2.25-2.28C298.52,160.64,299.46,161.21,299.32,162.85Z" transform="translate(1 0.36)"/><path class="cls-7" d="M302.28,165.82c-1.43.42-1.5-.52-1.51-1.52C302.11,164,302.37,164.73,302.28,165.82Z" transform="translate(1 0.36)"/><path class="cls-7" d="M300.81,164.33c-.49,0-.79-.25-.78-.78C300.58,163.52,300.93,163.69,300.81,164.33Z" transform="translate(1 0.36)"/><path class="cls-7" d="M300.07,163.59c-.51,0-.85-.2-.78-.79C299.79,162.82,300.12,163,300.07,163.59Z" transform="translate(1 0.36)"/><path class="cls-7" d="M297.12,160.62l-.78-.74C296.78,159.94,297.15,160.06,297.12,160.62Z" transform="translate(1 0.36)"/></g></svg>